<svg width="24" height="24" viewBox="0 0 24 24" fill="none" xmlns="http://www.w3.org/2000/svg">
<path d="M9.89062 12.7031H14.1094V14.1094H9.89062V12.7031Z" fill="#0475B1"/>
<path d="M19.4709 14.1094H15.5156V14.8126C15.5156 15.2011 15.201 15.5157 14.8125 15.5157H9.1875C8.79895 15.5157 8.48438 15.2011 8.48438 14.8126V14.1094H4.52911C3.62 14.1094 2.81598 13.5299 2.52814 12.6675L0 5.08179V20.4376C0 21.6006 0.946289 22.5469 2.10938 22.5469H21.8906C23.0537 22.5469 24 21.6006 24 20.4376V5.08234L21.4717 12.6675C21.184 13.5299 20.38 14.1094 19.4709 14.1094Z" fill="#0475B1"/>
<path d="M14.8127 1.45312H9.18768C8.0246 1.45312 7.07831 2.39941 7.07831 3.5625V4.26562H1.20996L3.86188 12.2225C3.95801 12.5101 4.22644 12.7031 4.5293 12.7031H8.48456V12C8.48456 11.6115 8.79913 11.2969 9.18768 11.2969H14.8127C15.2012 11.2969 15.5158 11.6115 15.5158 12V12.7031H19.4711C19.7739 12.7031 20.0424 12.5101 20.1385 12.2225L22.7906 4.26562H16.9221V3.5625C16.9221 2.39941 15.9758 1.45312 14.8127 1.45312ZM8.48456 4.26562V3.5625C8.48456 3.1745 8.79968 2.85938 9.18768 2.85938H14.8127C15.2007 2.85938 15.5158 3.1745 15.5158 3.5625V4.26562H8.48456Z" fill="#0475B1"/>
</svg>
