<svg width="30" height="20" viewBox="0 0 30 20" fill="none" xmlns="http://www.w3.org/2000/svg">
<path fill-rule="evenodd" clip-rule="evenodd" d="M0 1C0 0.447716 0.447723 0 1 0H29C29.5523 0 30 0.447716 30 1C30 1.55228 29.5523 2 29 2H1C0.447723 2 0 1.55228 0 1ZM0 10C0 9.44772 0.447723 9 1 9H29C29.5523 9 30 9.44772 30 10C30 10.5523 29.5523 11 29 11H1C0.447723 11 0 10.5523 0 10ZM1 18C0.447723 18 0 18.4477 0 19C0 19.5523 0.447723 20 1 20H29C29.5523 20 30 19.5523 30 19C30 18.4477 29.5523 18 29 18H1Z" fill="black"/>
</svg>
