<svg width="20" height="24" viewBox="0 0 20 24" fill="none" xmlns="http://www.w3.org/2000/svg">
<path d="M7.53079 6.14264C9.22704 6.14264 10.6021 4.76757 10.6021 3.07132C10.6021 1.37508 9.22704 0 7.53079 0C5.83455 0 4.45947 1.37508 4.45947 3.07132C4.45947 4.76757 5.83455 6.14264 7.53079 6.14264Z" fill="#0475B1"/>
<path d="M9.55021 13.8801L7.80717 17.5388L7.57955 18.017H4.47844L2.32523 9.40491L0.786133 9.78911L3.23952 19.6042H4.48073L2.88817 23.1117L3.85058 23.5478L5.64174 19.6042H8.26852L9.99017 23.5409L10.9587 23.1193L9.42418 19.6042H10.5394V18.017H8.59925L8.8284 17.5388L9.50591 16.1135L10.4744 14.0833H18.7V13.1606H9.8924L9.55021 13.8801Z" fill="#0475B1"/>
<path d="M8.73982 7.09665H5.24687L4.729 17.5388H6.49419H7.22135L9.41504 12.9345L9.55024 12.6511L9.74348 10.0939L12.0029 11.5734L10.0337 11.4573L10.0429 12.3884L12.1442 12.6702L12.1342 11.6597L12.3351 11.7903V12.6962H18.6336L19.2133 6.56885L18.6412 6.68571L13.739 7.54043L13.4045 11.1388L8.73982 7.09665ZM10.5745 12.1256V11.9095L11.4308 11.9736L11.4407 12.2257L10.5745 12.1256ZM15.421 12.2509H14.9757V12.0004H15.421V12.2509ZM16.0381 12.2509H15.5928V12.0004H16.0381V12.2509ZM17.866 12.2509H16.2321V12.0004H17.866V12.2509ZM14.0056 8.06517L18.5916 7.26087L18.2364 11.5971H13.9315L13.7131 11.4076L14.0056 8.06517Z" fill="#0475B1"/>
<path d="M12.1653 15.3879H10.4376L9.41406 17.5389H9.55002H12.1653V24H14.9304V15.3879H14.7089H12.1653Z" fill="#0475B1"/>
</svg>
