<svg width="24" height="24" viewBox="0 0 24 24" fill="none" xmlns="http://www.w3.org/2000/svg">
<g clip-path="url(#clip0)">
<path d="M3.50339 15.3787C3.36752 15.6497 3.42044 15.9772 3.63449 16.1915L3.80643 16.3634C4.30319 15.7747 4.88217 15.1359 5.58439 14.4338C5.63401 14.3842 5.68509 14.3602 5.7349 14.3145L4.62876 13.2081C3.98569 14.3712 3.61069 15.1659 3.50339 15.3787Z" fill="#0475B1"/>
<path d="M9.56219 18.4113C8.85834 19.1151 8.22113 19.6952 7.63574 20.1923L7.86865 20.4252C8.08472 20.6413 8.41541 20.6933 8.68732 20.5534C9.05151 20.3657 9.62427 20.0962 10.8401 19.4191L9.68176 18.2607C9.63599 18.3107 9.612 18.3616 9.56219 18.4113Z" fill="#0475B1"/>
<path d="M9.18739 14.8092C8.67928 14.3011 7.25032 14.7567 6.57906 15.4278C4.33345 17.6734 3.31923 19.2655 2.86385 20.2055C2.73329 20.4749 2.78767 20.7973 2.99934 21.009C3.21138 21.2212 3.53438 21.2751 3.80391 21.1445C4.72292 20.6983 6.29561 19.6888 8.56795 17.4167C9.30605 16.6782 9.67024 15.2923 9.18794 14.8098L9.18739 14.8092Z" fill="#0475B1"/>
<path d="M2.19466 9.36184L0.205956 11.3506C-0.0188971 11.5754 -0.0650397 11.9235 0.0942621 12.1992C0.249719 12.4713 0.57528 12.61 0.885095 12.527C1.95992 12.2388 2.90566 12.117 3.5425 12.2804C4.44851 10.6696 5.42208 9.18679 6.45315 7.83986C5.85677 7.45753 3.88601 7.67049 2.19466 9.36184Z" fill="#0475B1"/>
<path d="M11.9016 23.9246C12.1724 24.0615 12.5003 24.0086 12.7148 23.794L14.7037 21.8053C16.2434 20.2652 16.5144 18.2781 16.165 17.6481C14.6628 18.7802 13.141 19.7362 11.7212 20.5366C11.8192 21.0897 11.754 21.6264 11.5224 23.1938C11.4772 23.4972 11.6339 23.7907 11.9016 23.9246Z" fill="#0475B1"/>
<path d="M13.9595 7.05316C13.1372 7.87567 13.1372 9.21362 13.9595 10.0361C14.782 10.8586 16.1202 10.8586 16.9427 10.0361C17.7652 9.21362 17.7652 7.87567 16.9427 7.05316C16.1202 6.23065 14.782 6.23065 13.9595 7.05316Z" fill="#0475B1"/>
<path d="M23.9585 0.686218C23.9333 0.338501 23.6564 0.0636598 23.3098 0.0376589C21.5829 -0.092346 19.8628 0.120056 18.1768 0.635681C18.3037 1.79401 18.9028 3.04755 19.9256 4.07037C20.9607 5.10529 22.2483 5.70422 23.4273 5.81628C23.8814 4.22491 24.0968 2.52057 23.9585 0.686218Z" fill="#0475B1"/>
<path d="M18.9316 5.06445C17.7616 3.89441 17.0471 2.49109 16.8179 1.12476C12.5956 2.85638 8.55377 6.63788 5.35986 11.9501L6.94666 13.5369C8.03082 13.0967 9.34698 12.9805 10.1818 13.8151C11.0176 14.6511 10.8992 15.9667 10.4592 17.0494L12.0981 18.6884C16.1854 16.2251 20.944 12.3442 22.9675 7.18079C21.5678 6.9693 20.1207 6.25354 18.9316 5.06445ZM17.937 11.0306C16.5665 12.4011 14.3361 12.4011 12.9653 11.0306C11.5946 9.65985 11.5946 7.42926 12.9653 6.05872C14.3361 4.68817 16.5665 4.68817 17.937 6.05872C19.3077 7.42944 19.3077 9.65985 17.937 11.0306Z" fill="#0475B1"/>
</g>
<defs>
<clipPath id="clip0">
<rect width="24" height="24" fill="white"/>
</clipPath>
</defs>
</svg>
