<svg width="14" height="11" viewBox="0 0 14 11" fill="none" xmlns="http://www.w3.org/2000/svg">
<path d="M0.786959 6.53854L0.765105 6.53402L10.1333 6.53402L7.18826 9.32604C7.04405 9.46235 6.96494 9.647 6.96494 9.84081C6.96494 10.0346 7.04405 10.218 7.18826 10.3546L7.6465 10.7883C7.7906 10.9246 7.98262 11 8.18738 11C8.39226 11 8.58439 10.9252 8.72849 10.7889L13.7768 6.01375C13.9215 5.8769 14.0006 5.69462 14 5.5007C14.0006 5.30571 13.9215 5.12331 13.7768 4.98668L8.72849 0.211143C8.58439 0.0749393 8.39237 4.6344e-07 8.18738 4.45519e-07C7.98262 4.27618e-07 7.7906 0.075047 7.6465 0.211143L7.18826 0.644842C7.04405 0.780938 6.96494 0.962687 6.96494 1.15649C6.96494 1.3502 7.04405 1.52236 7.18826 1.65856L10.1665 4.4662L0.776487 4.46619C0.354552 4.46619 -4.12545e-07 4.8102 -4.4742e-07 5.20913L-5.01045e-07 5.82253C-5.3592e-07 6.22145 0.365024 6.53854 0.786959 6.53854Z" fill="black"/>
</svg>
