<svg width="24" height="22" viewBox="0 0 24 22" fill="none" xmlns="http://www.w3.org/2000/svg">
<path d="M22.1846 1.91819C19.7638 -0.502679 15.838 -0.502679 13.4172 1.91819L1.36254 13.9728C-0.453853 15.7892 -0.453853 18.7323 1.36254 20.5488C2.85967 22.0459 5.1178 22.2877 6.88307 21.3159C7.06747 21.3067 7.2488 21.2369 7.38988 21.0974L19.4445 9.04282C20.6549 7.83242 20.6549 5.8703 19.4445 4.6599C18.2341 3.4495 16.272 3.4495 15.0616 4.6599L5.19838 14.523C4.89614 14.8253 4.89614 15.3166 5.19838 15.6187C5.50063 15.921 5.99192 15.921 6.2941 15.6187L16.1573 5.75561C16.7633 5.14963 17.7443 5.14963 18.3488 5.75561C18.9548 6.3616 18.9548 7.34262 18.3488 7.94711L6.84124 19.4546C5.63083 20.665 3.66872 20.665 2.45832 19.4546C1.24791 18.2442 1.24791 16.2821 2.45832 15.0717L14.5129 3.01391C16.3293 1.19752 19.2725 1.19752 21.0889 3.01391C22.9053 4.8303 22.9053 7.77343 21.0889 9.58989L10.13 20.5488C9.82777 20.851 9.82777 21.3423 10.13 21.6445C10.4323 21.9467 10.9236 21.9467 11.2257 21.6445L22.1846 10.6856C24.6055 8.2648 24.6055 4.33907 22.1846 1.91819Z" fill="#0475B1"/>
</svg>
