<svg width="133" height="34" viewBox="0 0 133 34" fill="none" xmlns="http://www.w3.org/2000/svg">
<path fill-rule="evenodd" clip-rule="evenodd" d="M46.3421 8.60283L49.3755 13.1704V13.3448H46.621L43.8142 8.88177H41.757V13.3448H39.3687V1.14128H44.7207C45.9643 1.14128 46.9551 1.50738 47.6932 2.23959C48.4312 2.9718 48.8002 3.87834 48.8002 4.95922C48.8002 5.84253 48.5794 6.60088 48.1377 7.2343C47.6961 7.86772 47.0975 8.3239 46.3421 8.60283ZM41.757 3.2856V6.75488H44.5987C45.1798 6.75488 45.6157 6.58926 45.9062 6.25802C46.1968 5.92678 46.3421 5.49967 46.3421 4.97666C46.3421 4.48851 46.1939 4.08464 45.8975 3.76503C45.6011 3.44541 45.1682 3.2856 44.5987 3.2856H41.757ZM59.4986 1.14128L63.7872 13.1704V13.3448H61.1548L60.318 10.782H55.5412L54.7044 13.3448H52.1939V13.1704L56.4651 1.14128H59.4986ZM56.2385 8.67257H59.6206L57.9644 3.58197H57.8947L56.2385 8.67257ZM67.6691 13.3448V1.14128H70.0749V13.3448H67.6691ZM75.0551 13.3448V1.14128H77.4435V11.2004H83.0746V13.3448H75.0551ZM91.0707 13.5017C89.5133 13.5017 88.3075 13.1268 87.4533 12.3772C86.599 11.6276 86.1429 10.6077 86.0847 9.31761H88.508C88.5545 9.99171 88.8015 10.5031 89.2489 10.8518C89.6964 11.2004 90.3037 11.3748 91.0707 11.3748C92.7211 11.3748 93.5463 10.875 93.5463 9.87548C93.5463 9.4687 93.4126 9.14909 93.1453 8.91664C92.878 8.68419 92.4538 8.50405 91.8727 8.3762L90.0945 7.99266C88.9322 7.74859 88.0402 7.35343 87.4184 6.80718C86.7966 6.26093 86.4857 5.47061 86.4857 4.43622C86.4857 3.40182 86.9012 2.56793 87.7322 1.9345C88.5632 1.30108 89.6819 0.984375 91.0882 0.984375C92.4596 0.984375 93.5841 1.34466 94.4616 2.06525C95.3391 2.78584 95.7836 3.71562 95.7952 4.85462H93.372C93.3371 4.34324 93.1279 3.92774 92.7444 3.60812C92.3608 3.28851 91.7971 3.1287 91.0533 3.1287C90.356 3.1287 89.8301 3.24783 89.4756 3.48609C89.1211 3.72435 88.9438 4.04105 88.9438 4.43622C88.9438 4.76164 89.063 5.03477 89.3012 5.25559C89.5395 5.47642 89.9434 5.65075 90.5129 5.7786L92.169 6.12727C93.3894 6.38296 94.3337 6.79846 95.002 7.37377C95.6703 7.94908 96.0044 8.76554 96.0044 9.82318C96.0044 10.9622 95.5947 11.86 94.7754 12.5167C93.956 13.1733 92.7211 13.5017 91.0707 13.5017ZM46.3421 26.6853L49.3755 31.2529V31.4272H46.621L43.8142 26.9643H41.757V31.4272H39.3687V19.2238H44.7207C45.9643 19.2238 46.9551 19.5899 47.6932 20.3221C48.4312 21.0543 48.8002 21.9608 48.8002 23.0417C48.8002 23.925 48.5794 24.6834 48.1377 25.3168C47.6961 25.9502 47.0975 26.4064 46.3421 26.6853ZM41.757 21.3681V24.8374H44.5987C45.1798 24.8374 45.6157 24.6718 45.9062 24.3405C46.1968 24.0093 46.3421 23.5822 46.3421 23.0591C46.3421 22.571 46.1939 22.1671 45.8975 21.8475C45.6011 21.5279 45.1682 21.3681 44.5987 21.3681H41.757ZM53.2922 31.4272V19.2238H61.7475V21.3681H55.6806V24.0703H61.2071V26.1972H55.6806V29.3004H61.7475V31.4272H53.2922ZM72.3762 19.2238L76.6648 31.2529V31.4272H74.0324L73.1955 28.8645H68.4188L67.5819 31.4272H65.0715V31.2529L69.3427 19.2238H72.3762ZM69.1161 26.7551H72.4982L70.842 21.6645H70.7723L69.1161 26.7551ZM85.3758 31.5842C83.5394 31.5842 82.1215 31.0059 81.122 29.8495C80.1225 28.6931 79.6227 27.1909 79.6227 25.3429C79.6227 23.4834 80.1225 21.9725 81.122 20.8102C82.1215 19.648 83.5394 19.0669 85.3758 19.0669C86.8751 19.0669 88.1012 19.5027 89.0543 20.3744C90.0073 21.2461 90.5303 22.3444 90.6233 23.6693H88.1826C88.1128 22.9604 87.8426 22.3792 87.3719 21.926C86.9012 21.4727 86.2358 21.2461 85.3758 21.2461C84.2833 21.2461 83.4581 21.6122 82.9002 22.3444C82.3423 23.0766 82.0634 24.0761 82.0634 25.3429C82.0634 26.6098 82.3423 27.6064 82.9002 28.3328C83.4581 29.0592 84.2833 29.4224 85.3758 29.4224C86.201 29.4224 86.846 29.2103 87.3109 28.7861C87.7758 28.3618 88.0722 27.8011 88.2 27.1037H90.6233C90.4838 28.4054 89.9463 29.4776 89.0107 30.3202C88.0751 31.1628 86.8634 31.5842 85.3758 31.5842ZM97.434 31.4272V21.3855H93.8427V19.2238H103.431V21.3855H99.8398V31.4272H97.434ZM112.421 31.5842C110.55 31.5842 109.12 31.0001 108.132 29.8321C107.144 28.664 106.651 27.1618 106.651 25.3255C106.651 23.4892 107.144 21.987 108.132 20.8189C109.12 19.6509 110.55 19.0669 112.421 19.0669C114.281 19.0669 115.707 19.6509 116.701 20.8189C117.695 21.987 118.192 23.4892 118.192 25.3255C118.192 27.1618 117.695 28.664 116.701 29.8321C115.707 31.0001 114.281 31.5842 112.421 31.5842ZM112.421 29.405C113.525 29.405 114.356 29.0418 114.914 28.3154C115.472 27.589 115.751 26.5924 115.751 25.3255C115.751 24.0587 115.472 23.0621 114.914 22.3357C114.356 21.6093 113.525 21.2461 112.421 21.2461C111.317 21.2461 110.486 21.6093 109.928 22.3357C109.37 23.0621 109.091 24.0587 109.091 25.3255C109.091 26.5924 109.37 27.589 109.928 28.3154C110.486 29.0418 111.317 29.405 112.421 29.405ZM129.465 26.6853L132.499 31.2529V31.4272H129.744L126.937 26.9643H124.88V31.4272H122.492V19.2238H127.844C129.087 19.2238 130.078 19.5899 130.816 20.3221C131.554 21.0543 131.923 21.9608 131.923 23.0417C131.923 23.925 131.703 24.6834 131.261 25.3168C130.819 25.9502 130.221 26.4064 129.465 26.6853ZM124.88 21.3681V24.8374H127.722C128.303 24.8374 128.739 24.6718 129.029 24.3405C129.32 24.0093 129.465 23.5822 129.465 23.0591C129.465 22.571 129.317 22.1671 129.021 21.8475C128.724 21.5279 128.291 21.3681 127.722 21.3681H124.88Z" fill="black"/>
<path fill-rule="evenodd" clip-rule="evenodd" d="M18.9755 0.418945L13.5755 14.5319H0.375488L18.9755 0.418945Z" fill="black"/>
<path fill-rule="evenodd" clip-rule="evenodd" d="M5.97471 33.2812L11.3747 19.1683H24.5747L5.97471 33.2812Z" fill="black"/>
</svg>
